<?xml version="1.0" standalone="no"?>
<!DOCTYPE svg PUBLIC "-//W3C//DTD SVG 20010904//EN"
 "http://www.w3.org/TR/2001/REC-SVG-20010904/DTD/svg10.dtd">
<svg version="1.0" xmlns="http://www.w3.org/2000/svg"
 width="205.000000pt" height="230.000000pt" viewBox="0 0 205.000000 230.000000"
 preserveAspectRatio="xMidYMid meet">

<g transform="translate(0.000000,230.000000) scale(0.100000,-0.100000)"
fill="#000000" stroke="none">
<path d="M838 2143 c-14 -3 -18 -15 -18 -54 l0 -49 -49 0 -49 0 -4 -42 c-3
-24 -2 -47 2 -51 4 -5 27 -7 51 -5 l44 3 3 48 3 47 204 0 204 0 3 -47 c3 -45
5 -48 32 -51 15 -2 39 -1 53 3 21 5 24 10 21 48 l-3 42 -50 5 -50 5 -5 50 -5
50 -185 1 c-102 1 -193 0 -202 -3z"/>
<path d="M617 1934 c-4 -4 -7 -26 -7 -50 0 -46 -9 -54 -64 -54 l-33 0 -9 -102
-9 -103 -47 -3 -47 -3 -3 -97 -3 -97 -40 -3 c-22 -2 -46 -10 -52 -19 -10 -13
-13 -111 -13 -409 0 -416 0 -420 47 -408 37 10 63 -12 63 -55 l0 -38 51 -5
c61 -6 72 -19 64 -75 l-6 -43 35 0 c44 0 66 -22 66 -65 l0 -33 98 -4 c59 -2
100 1 104 7 4 5 8 29 8 52 l0 42 -107 3 -108 3 -3 52 c-3 52 -3 52 30 58 18 3
67 2 108 -2 l75 -8 3 -47 3 -48 205 0 204 0 0 44 c0 63 11 69 124 60 l96 -7 0
-53 0 -54 -111 0 -111 0 4 -55 5 -55 -212 0 -212 0 -1 -45 0 -45 71 -2 c40 -1
134 -2 209 -3 l138 0 0 41 c0 22 5 45 12 52 8 8 46 12 105 12 98 0 97 -1 93
51 -2 39 23 59 65 52 l35 -6 0 57 0 56 39 0 c61 0 71 7 71 51 0 42 18 59 63
59 l25 0 7 243 c3 133 5 319 3 412 l-3 170 -45 5 -45 5 -3 91 c-3 100 -5 104
-73 104 -32 0 -39 25 -39 136 l0 74 -37 0 c-52 0 -62 9 -71 61 -7 43 -8 44
-47 44 l-40 0 -3 -52 -3 -53 -60 0 -59 0 0 45 0 45 -195 0 -195 0 0 -45 0 -45
-59 0 -60 0 -3 53 -3 52 -40 3 c-23 2 -44 0 -48 -4z"/>
</g>
</svg>
