<svg width="62" height="62" viewBox="0 0 47 328" version="1.1" xmlns="http://www.w3.org/2000/svg" xmlns:xlink="http://www.w3.org/1999/xlink" xml:space="preserve" style="fill-rule:evenodd;clip-rule:evenodd;stroke-linecap:round;stroke-linejoin:round;stroke-miterlimit:1.5;"><g id="baseballbat"><path d="M16.293,314.505c-0.084,-79.002 -12.789,-250.432 -14.717,-296.469c-0.43,-10.258 9.627,-16.474 21.485,-16.474c11.857,0 21.852,6.213 21.484,16.474c-1.649,46.037 -13.89,217.467 -14.807,296.469c-2.141,2.3 -11.304,2.346 -13.445,0Z" style="fill:none;stroke:#757575;stroke-width:3.13px;"/><path d="M29.827,308.427c6.597,1.185 9.237,3.891 9.237,8.232c0,5.297 -7.171,9.597 -16.003,9.597c-8.833,0 -16.004,-4.3 -16.004,-9.597c-0,-4.253 2.813,-6.974 9.207,-8.232" style="fill:none;stroke:#757575;stroke-width:3.13px;"/><path d="M8.403,18.213c9.772,4.417 19.543,4.452 29.315,-0" style="fill:none;stroke:#757575;stroke-width:3.13px;"/></g></svg>