<svg width="62" height="62" viewBox="0 0 62 62" fill="none" xmlns="http://www.w3.org/2000/svg">
<g clip-path="url(#clip0_4762_1493)">
<path fill-rule="evenodd" clip-rule="evenodd" d="M29.3358 58.6423C29.3202 43.9619 26.9593 12.1062 26.601 3.55149C26.5211 1.64531 28.3899 0.490234 30.5934 0.490234C32.7967 0.490234 34.654 1.64475 34.5856 3.55149C34.2792 12.1062 32.0046 43.9619 31.8342 58.6423C31.4363 59.0697 29.7336 59.0782 29.3358 58.6423Z" stroke="#757575" stroke-miterlimit="1.5" stroke-linecap="round" stroke-linejoin="round"/>
<path d="M31.8507 57.5129C33.0766 57.7331 33.5672 58.236 33.5672 59.0426C33.5672 60.0269 32.2346 60.826 30.5934 60.826C28.952 60.826 27.6195 60.0269 27.6195 59.0426C27.6195 58.2523 28.1422 57.7467 29.3304 57.5129" stroke="#757575" stroke-width="0.00954268" stroke-miterlimit="1.5" stroke-linecap="round" stroke-linejoin="round"/>
<path d="M27.8696 3.58447C29.6855 4.40525 31.5012 4.41176 33.317 3.58447" stroke="#757575" stroke-width="0.00954268" stroke-miterlimit="1.5" stroke-linecap="round" stroke-linejoin="round"/>
</g>
<defs>
<clipPath id="clip0_4762_1493">
<rect width="60.95" height="60.95" fill="white" transform="translate(0.199997 0.199951)"/>
</clipPath>
</defs>
</svg>
