<svg width="62" height="62" viewBox="0 0 149 298" version="1.1" xmlns="http://www.w3.org/2000/svg" xmlns:xlink="http://www.w3.org/1999/xlink" xml:space="preserve" style="fill-rule:evenodd;clip-rule:evenodd;stroke-linecap:round;stroke-linejoin:round;stroke-miterlimit:1.5;">
<g id="key">
<g id="Layer3">
<path d="M87.952,1.563l-45.938,45.783l0,129.255c0,1.307 0.519,2.56 1.443,3.484c0.924,0.924 2.177,1.443 3.483,1.443c15.751,-0 64.771,-0 80.521,-0c1.306,-0 2.559,-0.519 3.483,-1.443c0.924,-0.924 1.443,-2.177 1.443,-3.484c0,-11.127 0,-37.241 0,-37.241l-10.718,-10.719l-0,-30.426l10.718,-12.221l0,-40.53l-44.435,-43.902Z" style="fill:none;stroke:#757575;stroke-width:3.13px;"/>
</g>
<g id="Layer4">
<path d="M42.014,172.107l-6.455,0c-4.698,0 -8.507,3.809 -8.507,8.508c0,10.345 0,28.589 0,46.009c0,24.635 19.971,44.606 44.606,44.606c10.104,0 20.833,0 30.936,0c24.635,0 44.606,-19.971 44.606,-44.606c0,-17.42 0,-35.664 0,-46.009c0,-4.699 -3.808,-8.508 -8.507,-8.508c-3.302,0 -6.306,0 -6.306,0" style="fill:none;stroke:#757575;stroke-width:3.12px;"/>
</g>
<g id="Layer5">
<path d="M129.537,225.108c-0,-10.802 -8.77,-19.572 -19.573,-19.572l-45.527,0c-10.802,0 -19.572,8.77 -19.572,19.572l-0,0.258c-0,10.803 8.77,19.573 19.572,19.573l45.527,-0c10.803,-0 19.573,-8.77 19.573,-19.573l-0,-0.258Z" style="fill:none;stroke:#757575;stroke-width:3.13px;"/></g><g id="Layer6"><circle cx="64.566" cy="225.237" r="19.701" style="fill:none;stroke:#757575;stroke-width:3.13px;"/></g><g id="Layer7"><circle cx="87.952" cy="59.807" r="23.679" style="fill:none;stroke:#757575;stroke-width:3.13px;"/><path d="M64.273,39.313l10.27,-10.369l0,-14.127" style="fill:none;stroke:#757575;stroke-width:3.13px;"/><path d="M112.595,40.178l-11.234,-11.234l-0,-13.909" style="fill:none;stroke:#757575;stroke-width:3.13px;"/></g><g id="Layer8"><path d="M87.952,1.716l-0,34.413" style="fill:none;stroke:#757575;stroke-width:3.13px;"/></g><g id="Layer9"><path d="M57.21,32.15l12.499,12.5" style="fill:none;stroke:#757575;stroke-width:3.13px;"/><path d="M119.61,33.162l-12.301,12.302" style="fill:none;stroke:#757575;stroke-width:3.13px;"/></g><g id="Layer10"></g><g id="Layer11"><path d="M87.952,83.486l-0,36.353l-24.719,24.718l0.227,36.59" style="fill:none;stroke:#757575;stroke-width:3.13px;"/></g><g id="Layer12"><path d="M87.952,99.241l-27.39,-0l-18.548,-18.345" style="fill:none;stroke:#757575;stroke-width:3.13px;"/><path d="M87.952,110.523l-27.39,-0l-18.548,18.345" style="fill:none;stroke:#757575;stroke-width:3.13px;"/></g><g id="Layer19"><path d="M121.669,98.215l-8.319,-0c-2.069,-0 -3.746,1.677 -3.746,3.745c0,5.85 0,17.087 0,22.936c0,2.068 1.677,3.745 3.746,3.745c3.542,0 8.319,0 8.319,0" style="fill:none;stroke:#757575;stroke-width:3.13px;"/></g><g id="Layer20"><path d="M109.604,104.401l12.065,-0" style="fill:none;stroke:#757575;stroke-width:3.13px;"/><path d="M109.604,110.523l12.065,-0" style="fill:none;stroke:#757575;stroke-width:3.13px;"/><path d="M109.604,116.597l12.065,-0" style="fill:none;stroke:#757575;stroke-width:3.13px;"/><path d="M109.604,122.664l12.065,0" style="fill:none;stroke:#757575;stroke-width:3.13px;"/></g><g id="Layer13"></g><g id="Layer14"><circle cx="80.789" cy="147.557" r="5.197" style="fill:none;stroke:#757575;stroke-width:3.13px;"/><circle cx="93.496" cy="147.557" r="5.197" style="fill:none;stroke:#757575;stroke-width:3.13px;"/><circle cx="106.021" cy="147.557" r="5.197" style="fill:none;stroke:#757575;stroke-width:3.13px;"/>
</g>
<g id="Layer15"><path d="M102.395,151.279l-12.526,12.277l-26.636,0" style="fill:none;stroke:#757575;stroke-width:3.13px;"/>
</g>
<g id="Layer16">
<path d="M89.869,151.279l-7.055,6.191l-19.581,0" style="fill:none;stroke:#757575;stroke-width:3.13px;"/>
</g>
<g id="Layer17">
<path d="M75.593,147.947l-12.36,-0" style="fill:none;stroke:#757575;stroke-width:3.13px;"/>
</g>
<g id="Layer18">
</g>
<g id="Layer21">
<path d="M27.052,181.772c0,4.467 3.615,8.094 8.067,8.094l104.015,-0c4.452,-0 8.066,-3.627 8.066,-8.094" style="fill:none;stroke:#757575;stroke-width:3.12px;"/>
</g><use xlink:href="#_Image1" x="0" y="233.251" width="91.888px" height="64.792px" transform="matrix(0.998784,0,0,0.996805,0,0)"/>
</g>
<defs>
</defs>
</svg>